<?xml version="1.0" encoding="utf-8"?>
<!-- Generator: Adobe Illustrator 24.1.0, SVG Export Plug-In . SVG Version: 6.00 Build 0)  -->
<svg version="1.1" id="レイヤー_1" xmlns="http://www.w3.org/2000/svg" xmlns:xlink="http://www.w3.org/1999/xlink" x="0px"
	 y="0px" viewBox="0 0 859 540.9" style="enable-background:new 0 0 859 540.9;" xml:space="preserve">
<style type="text/css">
	.st0{clip-path:url(#SVGID_2_);}
	.st1{opacity:0.37;fill:#FFC3C3;enable-background:new    ;}
	.st2{fill:#9F5353;}
	.st3{fill:none;stroke:#9F5353;stroke-miterlimit:10;}
	.st4{fill:#FF6375;}
	.st5{fill:#FF5064;}
	.st6{fill:#EF374C;}
	.st7{fill:#FBBEBE;}
	.st8{opacity:0.1;enable-background:new    ;}
	.st9{fill:#2F2E41;}
	.st10{fill:#3F3D56;}
	.st11{fill:#FF6584;}
	.st12{opacity:0.3;}
	.st13{fill:#FF2F2F;}
</style>
<g>
	<defs>
		<rect id="SVGID_1_" width="859" height="540.9"/>
	</defs>
	<clipPath id="SVGID_2_">
		<use xlink:href="#SVGID_1_"  style="overflow:visible;"/>
	</clipPath>
	<g class="st0">
		<g id="グループ_21">
			<path id="パス_9" class="st1" d="M859,328.7c-1.7,94-56.5,178.9-141.4,219.3c-32.7,15.5-68.4,23.5-104.6,23.5
				c-5.2,0-10.4-0.2-15.5-0.5c-111.9-7-224-7-335.9,0c-5.1,0.3-10.3,0.5-15.5,0.5c-42,0.1-83.3-10.8-119.9-31.4
				C49.7,497,1.7,416.6,0.1,328.7C-2.7,190,107.1,76.6,244.9,76c73.4-0.3,139.3,31.7,184.6,82.7c45.3-51,111.2-83,184.6-82.7
				C751.9,76.6,861.7,190,859,328.7z"/>
			<path id="パス_10" class="st2" d="M717.6,548c-32.7,15.5-68.4,23.5-104.6,23.5c-5.2,0-10.4-0.2-15.5-0.5
				c-111.9-7-224-7-335.9,0c-5.1,0.3-10.3,0.5-15.5,0.5c-42,0.1-83.3-10.8-119.9-31.4c55.4-24,163.5-40.3,287.9-40.3
				C551.5,499.9,669.2,519.8,717.6,548z"/>
			<path id="パス_11" class="st3" d="M547.2,204.7c-5.7-4.9-13.7-6.2-20.6-3.3c-10.2,4.5-14.7,17-14,28.2
				c0.7,11.2,5.4,21.6,8.4,32.4c4,14.5,5.1,30.1,0.4,44.4s-15.9,26.8-30.4,30.8c-13.4,3.7-27.7,0-41.1-3.8"/>
			<path id="パス_12" class="st4" d="M571.6,182.4c0.4-6.5-4.6-12-11-12.4c-6.5-0.4-12,4.6-12.4,11l0,0l-1.3,23.4l23.4,1.4
				c6.5,0.4,12-4.5,12.4-11C583,188.3,578.1,182.8,571.6,182.4L571.6,182.4z"/>
			<path id="パス_13" class="st4" d="M546.4,243.3c0.4-6.5-4.5-12-11-12.4s-12,4.5-12.4,11l0,0v0.1l-1.3,23.4l23.4,1.4
				c6.5,0.4,12-4.6,12.4-11S552.8,243.6,546.4,243.3L546.4,243.3z"/>
			<path id="パス_14" class="st4" d="M512.7,178c-5.2-3.9-12.5-2.9-16.4,2.3c-3.6,4.8-3,11.5,1.3,15.6l0,0l18,15.1l15-18
				c4.2-5,3.5-12.4-1.5-16.5c-5-4.2-12.4-3.5-16.5,1.5l0,0L512.7,178z"/>
			<path id="パス_15" class="st3" d="M652.6,194c-4.2-6.2-11.5-9.6-19-8.6c-11.1,1.6-18.7,12.5-21,23.4s-0.6,22.3-0.5,33.5
				c0,15-3.1,30.4-11.5,42.9s-22.5,21.6-37.5,21.6c-14,0-26.7-7.4-38.6-14.6"/>
			<path id="パス_16" class="st5" d="M682,179c2.2-6.1-0.9-12.8-7-15c-6.1-2.2-12.8,0.9-15,7c-0.1,0.2-0.1,0.4-0.2,0.5l0,0
				l-7.5,22.2l22.2,7.5c6.2,1.9,12.8-1.5,14.7-7.7C691,187.5,687.9,181.1,682,179z"/>
			<path id="パス_17" class="st4" d="M641.5,231c2.1-6.1-1.2-12.8-7.3-14.9c-6.1-2.1-12.8,1.2-14.9,7.3l0,0l-7.5,22.2l22.2,7.5
				c6.2,1.9,12.8-1.5,14.7-7.7C650.5,239.5,647.4,233.1,641.5,231L641.5,231z"/>
			<path id="パス_18" class="st5" d="M626.4,159.1c-3.8-5.2-11.2-6.4-16.4-2.5c-5,3.7-6.3,10.6-2.9,15.8l0,0l13.3,19.3l19.3-13.3
				c5.2-3.8,6.4-11.2,2.5-16.4C638.6,157,631.6,155.7,626.4,159.1L626.4,159.1z"/>
			<path id="パス_19" class="st3" d="M602.1,37.8c7.4-1.2,14.9,2,19.2,8.1c6.4,9.2,3.5,22.2-3,31.3s-16,15.6-24.2,23.1
				c-11.1,10.2-20.2,23-23.7,37.6s-0.6,31.2,9.6,42.2c9.5,10.2,23.5,14.6,36.9,18.5"/>
			<path id="パス_20" class="st6" d="M593.2,6.1c3.1-5.7,10.2-7.8,15.9-4.7s7.8,10.2,4.7,15.9l0,0l-11.2,20.6L582,26.6
				c-5.8-2.8-8.3-9.8-5.4-15.7c2.8-5.8,9.8-8.3,15.7-5.4c0.3,0.1,0.5,0.3,0.8,0.4L593.2,6.1z"/>
			<path id="パス_21" class="st5" d="M582.5,71.1c3.1-5.7,10.2-7.8,15.9-4.7c5.7,3.1,7.8,10.2,4.7,15.9l0,0l0,0l-11.2,20.6
				l-20.6-11.2c-5.6-3.2-7.6-10.4-4.3-16C570.1,70.2,576.9,68.2,582.5,71.1L582.5,71.1z"/>
			<path id="パス_22" class="st6" d="M645.5,33.4c6.4-0.8,12.3,3.8,13,10.3c0.7,6.2-3.5,11.9-9.7,12.9l0,0l-23.2,3.4l-3.3-23.2
				c-0.9-6.4,3.5-12.3,9.9-13.3C638.6,22.6,644.6,27,645.5,33.4L645.5,33.4L645.5,33.4z"/>
			<rect id="長方形_36" x="380.3" y="285.8" class="st7" width="21.6" height="11.2"/>
			<rect id="長方形_37" x="380.3" y="285.8" class="st8" width="21.6" height="11.2"/>
			<circle id="楕円形_3" class="st9" cx="340.6" cy="96.7" r="27.6"/>
			<path id="パス_23" class="st7" d="M403.2,280.1c0,0-8.6-2.6-10.4-1.7s6,7.8,6,7.8L403.2,280.1z"/>
			<path id="パス_24" class="st8" d="M403.2,280.1c0,0-8.6-2.6-10.4-1.7s6,7.8,6,7.8L403.2,280.1z"/>
			<path id="パス_25" class="st10" d="M343.6,501.2c0,0,19.9,2.6,23.3,2.6s13,3.5,7.8,7.8c-5.2,4.3-38,10.4-42.3,7.8
				s-10.4-10.4-6.1-11.2S343.6,501.2,343.6,501.2z"/>
			<path id="パス_26" class="st7" d="M308.2,533.1l-6.9,12.1l8.6,4.3l16.4,3.5l8.7-11.2l-3.5-13L308.2,533.1z"/>
			<path id="パス_27" class="st9" d="M354,444.2c0,0-11.2,47.5-9.5,50.1s5.2,9.5,1.7,12.1s-17.3,3.5-17.3,3.5l4.3-25l6-30.2
				L354,444.2z"/>
			<path id="パス_28" class="st9" d="M322.9,344l11.2,50.9c0,0,1.7,25-2.6,34.5s-27.6,109.6-27.6,109.6s24.2,0.9,29.4-1.7
				s13.9-62.4,13.9-62.4s28.4-56.8,27.5-68s4.3-68.2-3-72.5S322.9,344,322.9,344z"/>
			<path id="パス_29" class="st10" d="M324.6,548.6l10.4-10.4c0,0,27.6,13.8,32,14.7s13.8,7.8,4.3,10.4s-44.9,0.9-53.5,0
				s-25.9-1.7-23.3-6.9s6.9-23.3,6.9-23.3s2.4-3.3,3.8,0.9s2.3,10.3,5.7,10.3S324.6,548.6,324.6,548.6z"/>
			<path id="パス_30" class="st7" d="M457.5,329.4l24.2-1.7l16.4,8.6l-1.7,10.4l-6.9,1.7c0,0-19-7.8-30.2-5.2
				S457.5,329.4,457.5,329.4z"/>
			<path id="パス_31" class="st9" d="M486,332.8c0,0,9.5,10.4,0,14.3c0,0,1.7,3,8.6,3.9s16.4,6.9,19,6.9c2.6,0,13.8-1.7,6.9-11.2
				S486,316.4,486,316.4s-7.8-3.5-10.4,3.5s-4,8.5-4,8.5S484.3,331.1,486,332.8z"/>
			<path id="パス_32" class="st7" d="M413.5,415.7c0,0,7.8,29.4,7.8,31.1s10.4-6.9,10.4-6.9l1.7-15.5c0,0-6.9-6.9-6.9-11.2
				S413.5,415.7,413.5,415.7z"/>
			<path id="パス_33" class="st9" d="M429.1,436.4c0,0-6,7.8-10.4,5.2l2.6,29.3c0,0,1.7,14.7,7.8,8.6s12.1-36.3,12.1-36.3
				s8.6-18.1,1.7-20.7c-3.9-1.5-8-2.7-12.1-3.5C430.8,419.1,430.8,437.3,429.1,436.4z"/>
			<path id="パス_34" class="st11" d="M373,338l25.9,53.5c0,0,8.6,30.2,12.1,31.1s16.4-5.2,18.1-6S414.4,382,414.4,376
				s-19.9-39.7-19.9-39.7L373,338z"/>
			<path id="パス_35" class="st8" d="M373,338l25.9,53.5c0,0,8.6,30.2,12.1,31.1s16.4-5.2,18.1-6S414.4,382,414.4,376
				s-19.9-39.7-19.9-39.7L373,338z"/>
			<path id="パス_36" class="st11" d="M391.1,244.7c0,0,0.9,18.1-2.6,30.2s4.3,51.8,4.3,51.8s13,0.9,16.4,0s50.1-1.7,52.7,0
				s1.7,31.9,0,31.1s-46.6-10.4-68.2-6.9s-24.2-1.7-25-3.5s-15.5-48.4-15.5-48.4l-5.2-22.4l-6.9-24.2l4.3-23.3L391.1,244.7z"/>
			<circle id="楕円形_4" class="st7" cx="338.9" cy="108.8" r="23.3"/>
			<circle id="楕円形_5" class="st7" cx="295.2" cy="163.6" r="23.3"/>
			<path id="パス_37" class="st7" d="M345.3,124.7c0,0,15.5,10.4,13,16.4s-9.5,12.9-9.5,12.9l-0.9,9.5l12.9,4.3l32.8,1.7
				c0,0-1.7-29.4-12.1-37.1s-22.4-12.9-24.2-19.8S345.3,124.7,345.3,124.7z"/>
			<path id="パス_38" class="st7" d="M388.2,146c-5.6-10.6-21.5-9.3-24.8,2.2c-0.9,2.8-0.5,5.9,1,8.4c6,10.4,10.4,18.1,10.4,18.1
				l19-1.7C393.7,173.1,394,157,388.2,146z"/>
			<path id="パス_39" class="st9" d="M351.6,151c0,0-22.7,14.3-21,23.8s3.5,25.9,3.5,31.9s6,25,14.7,28.5s8.6-6,20.7,5.2
				s25,16.4,24.2,18.1s3.5-15.5-3.5-22.5s-14.7-26.8-7.8-35.4s13-31.1,13-31.1s-0.9-5.2-6-4.3s-37.1-2.6-38.8-6.9
				C349.5,155.9,349.9,153.1,351.6,151z"/>
			<path id="パス_40" class="st9" d="M348.4,158.3c0,0,23.7-25.8,27.1-24.9s13.4,11.1,13.4,11.1l-13.4-9.4l-27.1,24.7V158.3z"/>
			<path id="パス_41" class="st7" d="M315.1,167.9c0,0,3.2,34.9,7.7,38.2s-33.6,2.4-33.6,2.4s8.6-26.8,3.5-30.2
				S315.1,167.9,315.1,167.9z"/>
			<path id="パス_42" class="st10" d="M323.7,196.4c0,0-29.4-7.8-32.8-3.4s-10.4,41.4-10.4,41.4s3.5,25,9.5,43.2s13.8,82,19.9,82
				s16.4-9.5,19-9.5s18.1-7.8,27.6-6c5.5,1.1,11.1,0.8,16.4-0.9c0,0-4.3-36.3-14.7-45.8s-15.5-75.1-15.5-75.1
				S328.1,194.7,323.7,196.4z"/>
			<path id="パス_43" class="st7" d="M368.6,278.4c0,0,9.8,13.3,19.6,14l5.5-0.2c0,0-8.6,22.4-4.3,23.3s17.3-16.4,13-25.9
				S385,265.5,385,265.5L368.6,278.4z"/>
			<path id="パス_44" class="st7" d="M403.2,278.4c0,0-14.7,13.8-8.6,19.9s13.8,0,13.8,0S414.4,289.6,403.2,278.4z"/>
			<path id="パス_45" class="st8" d="M403.2,278.4c0,0-14.7,13.8-8.6,19.9s13.8,0,13.8,0S414.4,289.6,403.2,278.4z"/>
			<circle id="楕円形_6" class="st9" cx="346.6" cy="91.5" r="27.6"/>
			<circle id="楕円形_7" class="st9" cx="359.6" cy="68.2" r="16.4"/>
			<path id="パス_46" class="st9" d="M346.6,63c0-8.4,6.3-15.4,14.7-16.3c-0.6-0.1-1.2-0.1-1.7-0.1c-9.1,0.2-16.2,7.7-16,16.8
				c0.2,8.7,7.3,15.8,16,16l0,0c0.6,0,1.2,0,1.8-0.1C353,78.5,346.6,71.4,346.6,63z"/>
			<ellipse id="楕円形_8" class="st9" cx="337.5" cy="102.7" rx="22" ry="16.4"/>
			<path id="パス_47" class="st9" d="M296.2,154.9c-0.3,1.6-1,3.2-0.4,4.9c0.5,1.2,1.5,2.2,2.2,3.4c1.3,2.1,0.6,4.8-1.5,6.1
				c-0.1,0.1-0.2,0.1-0.4,0.2c-1.3-0.7-2.8-1-4.2-0.7c-1.4,0.3-2.3,1.6-2.1,3c0.3,2,2.6,3.3,3.8,5c0.7,1.3,1.2,2.8,1.4,4.3
				c0.6,2.3,1.6,4.6,1.7,7s-1,4.8-3.3,5.1c-1.9,0.3-4-1-5.4-2.6s-2.4-3.5-3.6-5.2c-4.2-5.5-11.3-8-16.2-13
				c-6.2-6.4-7.5-15.8-5.3-23.3c0.8-3.2,2.6-6,5.1-8.1c2.8-2,6.4-2.7,9.5-4.2c3.3-1.7,5.8-4.4,8.7-6.6s6.5-3.9,10.5-3.4
				c2.8,0.4,5.4,1.9,8.2,2.6c3,0.8,6.2,0.5,9-0.8l-2.6,2.8c1.8,0.7,3.8,1,5.8,0.9c-0.8,1.6-2.2,2.9-3.9,3.5c1.4,1.1,3.1,1.6,4.9,1.5
				c-1.9,2.2-3.9,4.4-6.9,5.2c-1.4,0.4-3,0.4-4.5,0.6c-3.1,0.5-5.8,2.2-8.4,3.8c-1.4,0.9-3,1.8-3,3.6
				C295.3,152.1,296.5,153.3,296.2,154.9z"/>
			<path id="パス_48" class="st10" d="M306.5,205c0,0-7.8,28.5,6,34.5s42.3,28.5,47.5,36.3s11.2,10.4,11.2,10.4
				s20.7-17.3,16.4-22.4S366,243,366,243S322,195.5,306.5,205z"/>
			<path id="パス_49" class="st7" d="M374.7,205.9c0,0-31.7-9.1-41.3-10.6s-34.6,1.1-29.5,5.4s35.4,7.8,35.4,7.8l36.3,13.8
				L374.7,205.9z"/>
			<path id="パス_50" class="st9" d="M374.7,170.5c0,0,2.6,17.3,2.6,23.3s4.3,11.2,0.9,11.2s-6-3.4-6,0s-5.2,24.2,0,24.2
				s18.1-3.5,20.7-3.5s11.2-1.7,10.4-11.2s-4.3-19.9-2.6-21.6s2.6-10.4,0.9-12.1s-6-12.9-6-12.9L374.7,170.5z"/>
			<g id="グループ_18" class="st12">
				<path id="パス_51" class="st13" d="M557.2,346.2c-3.3-0.4-6.3,2-6.7,5.3c-0.4,3.3,2,6.3,5.3,6.7l0,0l0,0l12,1.4l1.4-12
					c0.4-3.3-2-6.3-5.3-6.7C560.6,340.5,557.5,342.9,557.2,346.2L557.2,346.2L557.2,346.2z"/>
			</g>
			<g id="グループ_19" class="st12">
				<path id="パス_52" class="st13" d="M702,288.5c-2.9-1.7-6.6-0.7-8.3,2.2c-1.7,2.9-0.7,6.6,2.2,8.3l0,0l0.1,0.1l10.5,5.9
					l5.9-10.5c1.7-2.9,0.6-6.6-2.3-8.3S703.7,285.5,702,288.5L702,288.5L702,288.5L702,288.5z"/>
			</g>
			<g id="グループ_20" class="st12">
				<path id="パス_53" class="st13" d="M637.4,370.4c-3.3-0.4-6.3,2-6.7,5.3c-0.4,3.3,2,6.3,5.3,6.7l0,0l0,0l12,1.4l1.4-12
					c0.4-3.3-2-6.3-5.3-6.7C640.8,364.7,637.8,367.1,637.4,370.4L637.4,370.4L637.4,370.4z"/>
			</g>
		</g>
	</g>
</g>
</svg>
